<?xml version="1.0" standalone="no"?>
<!DOCTYPE svg PUBLIC "-//W3C//DTD SVG 1.0//EN"
"http://www.w3.org/TR/2001/REC-SVG-20010904/DTD/svg10.dtd">

<svg width="416px" height="414px" viewBox="0 0 416 414" version="1.0" xmlns="http://www.w3.org/2000/svg">

 <path d=" M 306.00 213.00 L 162.00 55.00 L 250.00 180.00 L 178.00 48.00 L 45.00 317.00 L 11.00 229.00 L 62.00 156.00 L 396.00 247.00 L 187.00 404.00 L 221.00 399.00 L 52.00 355.00 L 191.00 71.00 L 175.00 377.00 L 309.00 41.00 L 202.00 235.00 L 195.00 392.00 L 131.00 19.00 L 406.00 319.00 L 293.00 282.00 L 404.00 55.00 L 100.00 297.00 L 133.00 220.00 L 395.00 124.00 L 306.00 114.00 L 100.00 392.00 L 173.00 84.00 L 248.00 351.00 L 114.00 61.00 L 295.00 209.00 L 332.00 330.00 L 186.00 53.00 L 378.00 384.00 L 198.00 89.00 L 307.00 10.00 L 308.00 374.00 L 120.00 214.00 L 320.00 343.00 L 42.00 225.00 L 127.00 363.00 L 364.00 144.00 L 340.00 25.00 L 218.00 240.00 L 228.00 196.00 L 58.00 304.00 L 360.00 159.00 L 97.00 158.00 L 275.00 82.00 L 42.00 206.00 L 37.00 206.00 L 306.00 322.00 L 239.00 110.00 L 87.00 375.00 L 216.00 206.00 L 243.00 156.00 L 320.00 144.00 L 19.00 313.00 L 35.00 45.00 L 317.00 221.00 L 95.00 265.00 L 257.00 264.00 L 170.00 58.00 L 143.00 43.00 L 78.00 362.00 L 57.00 236.00 L 38.00 75.00 L 42.00 398.00 L 286.00 186.00 L 40.00 385.00 L 341.00 295.00 L 134.00 38.00 L 390.00 244.00 L 365.00 197.00 L 312.00 156.00 L 253.00 258.00 L 243.00 343.00 L 286.00 238.00 L 324.00 91.00 L 331.00 282.00 L 19.00 372.00 L 305.00 81.00 L 402.00 327.00 L 52.00 294.00 L 232.00 339.00 L 227.00 156.00 L 47.00 378.00 L 45.00 277.00 L 107.00 47.00 L 277.00 141.00 L 173.00 384.00 L 242.00 135.00 L 150.00 85.00 L 233.00 120.00 L 64.00 137.00 L 223.00 227.00 L 377.00 201.00 L 217.00 149.00 L 97.00 219.00 L 359.00 18.00 L 150.00 81.00 L 177.00 367.00 z"
 style="fill:#00009c; fill-opacity:0.13; fill-rule:evenodd; stroke:#d3d3da; stroke-opacity:1.00; stroke-width:0.80;"/>

 <path d=" M 190.00 174.00 L 32.00 162.00 L 326.00 344.00 L 400.00 247.00 L 88.00 110.00 L 260.00 148.00 L 146.00 124.00 L 363.00 207.00 L 228.00 397.00 L 370.00 175.00 L 185.00 144.00 L 330.00 16.00 L 27.00 126.00 L 123.00 27.00 L 65.00 27.00 L 393.00 196.00 L 330.00 331.00 L 246.00 102.00 L 222.00 135.00 L 200.00 92.00 L 194.00 208.00 L 76.00 178.00 L 317.00 164.00 L 155.00 124.00 L 329.00 30.00 L 188.00 404.00 L 396.00 370.00 L 395.00 218.00 L 231.00 185.00 L 360.00 55.00 L 286.00 106.00 L 291.00 386.00 L 362.00 155.00 L 199.00 247.00 L 124.00 294.00 L 116.00 181.00 L 35.00 78.00 L 257.00 55.00 L 399.00 148.00 L 161.00 165.00 L 279.00 53.00 L 86.00 12.00 L 312.00 23.00 L 276.00 395.00 L 222.00 356.00 L 151.00 159.00 L 280.00 213.00 L 167.00 146.00 L 87.00 339.00 L 363.00 271.00 L 280.00 330.00 L 364.00 249.00 L 323.00 208.00 L 395.00 188.00 L 18.00 132.00 L 150.00 388.00 L 229.00 106.00 L 71.00 141.00 L 294.00 86.00 L 77.00 283.00 L 313.00 390.00 L 303.00 107.00 L 230.00 357.00 L 158.00 282.00 L 137.00 270.00 L 10.00 324.00 L 26.00 302.00 L 376.00 335.00 L 73.00 141.00 L 179.00 73.00 L 284.00 141.00 L 401.00 16.00 L 301.00 52.00 L 39.00 353.00 L 285.00 215.00 L 287.00 386.00 L 222.00 360.00 L 216.00 84.00 L 271.00 18.00 L 383.00 35.00 L 120.00 321.00 L 301.00 208.00 L 281.00 168.00 L 225.00 241.00 L 239.00 381.00 L 192.00 119.00 L 327.00 311.00 L 234.00 272.00 L 149.00 379.00 L 287.00 190.00 L 151.00 211.00 L 33.00 105.00 L 133.00 97.00 L 91.00 256.00 L 28.00 83.00 L 371.00 309.00 L 44.00 263.00 L 364.00 106.00 L 255.00 64.00 L 31.00 134.00 z"
 style="fill:#9c0000; fill-opacity:0.13; fill-rule:evenodd; stroke:#ffa07a; stroke-opacity:1.00; stroke-width:0.80;"/>

 <path d=" M 213.00 339.00 L 211.00 344.00 L 219.00 347.00 L 222.00 355.00 L 222.00 360.00 L 234.00 365.00 L 236.00 366.00 L 236.00 367.00 L 201.00 394.00 L 220.00 399.00 L 197.00 403.00 L 188.00 404.00 L 188.00 403.00 L 201.00 394.00 L 193.00 392.00 L 194.00 387.00 L 195.00 392.00 L 195.00 385.00 L 211.00 344.00 L 200.00 339.00 L 203.00 336.00 L 209.00 335.00 z M 177.00 344.00 L 175.00 345.00 L 175.00 346.00 L 154.00 372.00 L 152.00 381.00 L 146.00 379.00 L 134.00 357.00 L 161.00 349.00 L 155.00 371.00 L 149.00 379.00 L 154.00 372.00 L 155.00 371.00 L 174.00 345.00 L 175.00 345.00 L 175.00 343.00 L 177.00 341.00 z M 348.00 332.00 L 372.00 374.00 L 346.00 332.00 z M 219.00 347.00 L 217.00 343.00 L 213.00 339.00 L 214.00 335.00 L 217.00 343.00 L 222.00 348.00 L 222.00 349.00 L 230.00 357.00 L 231.00 353.00 L 222.00 349.00 L 222.00 348.00 L 221.00 336.00 L 231.00 339.00 L 233.00 347.00 L 231.00 353.00 L 234.00 354.00 L 236.00 366.00 L 238.00 366.00 L 237.00 367.00 L 236.00 366.00 L 234.00 365.00 L 222.00 356.00 L 222.00 349.00 z M 240.00 322.00 L 239.00 325.00 L 237.00 326.00 L 238.00 329.00 L 235.00 339.00 L 236.00 355.00 L 246.00 360.00 L 237.00 366.00 L 238.00 366.00 L 236.00 355.00 L 234.00 354.00 L 233.00 347.00 L 235.00 339.00 L 234.00 327.00 L 237.00 326.00 L 234.00 322.00 z M 306.00 337.00 L 297.00 365.00 L 291.00 359.00 L 290.00 330.00 z M 166.00 329.00 L 162.00 331.00 L 134.00 357.00 L 131.00 351.00 L 141.00 337.00 L 162.00 331.00 L 167.00 326.00 z M 287.00 356.00 L 280.00 350.00 L 282.00 333.00 L 286.00 329.00 z M 41.00 352.00 L 39.00 353.00 L 41.00 350.00 z M 268.00 340.00 L 264.00 346.00 L 257.00 351.00 L 266.00 338.00 z M 69.00 321.00 L 58.00 342.00 L 46.00 349.00 L 46.00 345.00 L 55.00 335.00 L 69.00 321.00 L 71.00 317.00 L 70.00 317.00 L 71.00 316.00 L 71.00 319.00 z M 320.00 343.00 L 311.00 339.00 L 311.00 337.00 z M 141.00 337.00 L 126.00 341.00 L 120.00 331.00 L 151.00 323.00 z M 107.00 331.00 L 101.00 336.00 L 87.00 339.00 L 94.00 322.00 L 100.00 319.00 z M 199.00 324.00 L 198.00 326.00 L 198.00 330.00 L 206.00 332.00 L 203.00 336.00 L 198.00 338.00 L 197.00 338.00 L 198.00 330.00 L 196.00 330.00 L 198.00 326.00 L 198.00 324.00 z M 197.00 322.00 L 194.00 329.00 L 196.00 330.00 L 194.00 336.00 L 192.00 335.00 L 194.00 329.00 L 189.00 328.00 L 195.00 321.00 L 196.00 321.00 z M 300.00 328.00 L 307.00 333.00 L 307.00 335.00 L 296.00 327.00 z M 89.00 308.00 L 85.00 327.00 L 73.00 334.00 L 71.00 319.00 L 83.00 307.00 z M 109.00 334.00 L 107.00 331.00 L 117.00 323.00 L 111.00 333.00 z M 186.00 332.00 L 185.00 334.00 L 185.00 332.00 z M 220.00 320.00 L 215.00 333.00 L 214.00 333.00 L 211.00 326.00 L 216.00 320.00 z M 187.00 333.00 L 186.00 332.00 L 188.00 330.00 z M 308.00 333.00 L 307.00 333.00 L 308.00 330.00 z M 120.00 330.00 L 119.00 331.00 L 114.00 332.00 L 116.00 323.00 L 117.00 323.00 z M 221.00 316.00 L 221.00 320.00 L 228.00 321.00 L 230.00 328.00 L 221.00 331.00 L 221.00 320.00 L 220.00 320.00 L 221.00 316.00 L 221.00 314.00 L 222.00 313.00 z M 191.00 318.00 L 190.00 323.00 L 183.00 325.00 L 184.00 327.00 L 187.00 328.00 L 184.00 330.00 L 184.00 327.00 L 179.00 326.00 L 183.00 325.00 L 182.00 317.00 z M 178.00 325.00 L 179.00 326.00 L 178.00 326.00 L 178.00 329.00 L 174.00 327.00 L 178.00 326.00 L 178.00 325.00 L 173.00 324.00 L 173.00 321.00 L 177.00 317.00 L 178.00 317.00 z M 288.00 322.00 L 286.00 324.00 L 286.00 326.00 L 285.00 326.00 L 286.00 327.00 L 286.00 329.00 L 284.00 328.00 L 285.00 326.00 L 284.00 326.00 L 286.00 324.00 L 286.00 321.00 z M 308.00 313.00 L 304.00 316.00 L 305.00 318.00 L 308.00 318.00 L 308.00 329.00 L 300.00 328.00 L 294.00 324.00 L 300.00 319.00 L 297.00 318.00 L 298.00 317.00 L 302.00 318.00 L 300.00 319.00 L 306.00 322.00 L 305.00 318.00 L 302.00 318.00 L 304.00 316.00 L 303.00 313.00 L 308.00 310.00 z M 283.00 326.00 L 284.00 326.00 L 283.00 327.00 L 283.00 326.00 L 279.00 326.00 L 283.00 319.00 z M 173.00 321.00 L 170.00 323.00 L 173.00 324.00 L 173.00 327.00 L 169.00 325.00 L 170.00 323.00 L 168.00 323.00 L 169.00 319.00 L 172.00 318.00 z M 290.00 324.00 L 290.00 327.00 L 286.00 327.00 L 286.00 326.00 L 289.00 323.00 z M 357.00 303.00 L 354.00 307.00 L 371.00 309.00 L 367.00 306.00 L 396.00 316.00 L 396.00 326.00 L 357.00 323.00 L 347.00 316.00 L 354.00 307.00 L 342.00 305.00 L 345.00 299.00 z M 94.00 322.00 L 91.00 324.00 L 96.00 317.00 z M 276.00 314.00 L 274.00 315.00 L 277.00 315.00 L 279.00 317.00 L 275.00 324.00 L 262.00 319.00 L 274.00 315.00 L 255.00 313.00 L 259.00 304.00 L 258.00 303.00 L 260.00 303.00 L 259.00 304.00 z M 340.00 321.00 L 342.00 321.00 L 342.00 323.00 L 341.00 324.00 L 340.00 321.00 L 335.00 321.00 L 337.00 316.00 z M 258.00 303.00 L 247.00 306.00 L 247.00 312.00 L 255.00 313.00 L 254.00 315.00 L 262.00 319.00 L 252.00 322.00 L 251.00 323.00 L 248.00 323.00 L 252.00 322.00 L 254.00 315.00 L 247.00 312.00 L 248.00 312.00 L 244.00 311.00 L 245.00 307.00 L 247.00 306.00 L 248.00 299.00 L 251.00 299.00 z M 246.00 321.00 L 248.00 323.00 L 245.00 323.00 L 246.00 321.00 L 242.00 317.00 L 243.00 312.00 L 247.00 312.00 z M 158.00 314.00 L 170.00 316.00 L 169.00 319.00 L 161.00 321.00 L 155.00 318.00 z M 342.00 305.00 L 339.00 311.00 L 347.00 316.00 L 343.00 321.00 L 342.00 321.00 L 338.00 315.00 L 339.00 311.00 L 334.00 308.00 L 331.00 303.00 z M 231.00 315.00 L 232.00 321.00 L 228.00 321.00 L 227.00 312.00 L 230.00 311.00 L 229.00 311.00 L 226.00 310.00 L 226.00 309.00 L 228.00 307.00 L 227.00 305.00 L 226.00 305.00 L 228.00 306.00 L 228.00 307.00 L 229.00 311.00 L 230.00 311.00 z M 132.00 308.00 L 129.00 312.00 L 130.00 312.00 L 129.00 313.00 L 131.00 314.00 L 120.00 321.00 L 124.00 317.00 L 129.00 313.00 L 127.00 313.00 L 129.00 312.00 L 124.00 311.00 L 127.00 306.00 z M 321.00 308.00 L 323.00 313.00 L 326.00 320.00 L 312.00 318.00 L 315.00 308.00 L 317.00 307.00 z M 209.00 309.00 L 205.00 310.00 L 208.00 317.00 L 204.00 319.00 L 201.00 319.00 L 205.00 310.00 L 205.00 309.00 L 206.00 308.00 L 205.00 308.00 z M 233.00 318.00 L 231.00 315.00 L 231.00 311.00 L 232.00 311.00 z M 310.00 318.00 L 308.00 318.00 L 308.00 313.00 L 310.00 311.00 z M 198.00 318.00 L 198.00 317.00 L 201.00 313.00 z M 192.00 317.00 L 189.00 314.00 L 193.00 313.00 z M 294.00 317.00 L 290.00 316.00 L 290.00 315.00 z M 189.00 314.00 L 182.00 316.00 L 181.00 313.00 L 185.00 310.00 z M 180.00 284.00 L 179.00 284.00 L 179.00 286.00 L 177.00 288.00 L 177.00 290.00 L 175.00 299.00 L 179.00 304.00 L 179.00 306.00 L 180.00 306.00 L 181.00 313.00 L 178.00 316.00 L 179.00 306.00 L 173.00 305.00 L 175.00 299.00 L 171.00 296.00 L 177.00 288.00 L 177.00 286.00 L 179.00 284.00 L 179.00 283.00 z M 287.00 314.00 L 286.00 315.00 L 286.00 313.00 z M 172.00 316.00 L 170.00 316.00 L 172.00 309.00 z M 285.00 297.00 L 286.00 297.00 L 286.00 306.00 L 284.00 309.00 L 284.00 312.00 L 283.00 312.00 L 284.00 313.00 L 284.00 316.00 L 280.00 316.00 L 282.00 313.00 L 283.00 312.00 L 282.00 312.00 L 284.00 309.00 L 285.00 297.00 L 281.00 296.00 L 286.00 295.00 z M 99.00 309.00 L 97.00 315.00 L 93.00 308.00 z M 280.00 315.00 L 277.00 315.00 L 276.00 314.00 L 278.00 314.00 z M 223.00 310.00 L 222.00 313.00 L 221.00 314.00 L 221.00 310.00 z M 37.00 303.00 L 19.00 313.00 L 19.00 311.00 L 26.00 302.00 z M 142.00 303.00 L 142.00 302.00 L 143.00 302.00 L 152.00 289.00 L 161.00 285.00 L 158.00 282.00 L 160.00 279.00 L 168.00 280.00 L 161.00 285.00 L 162.00 286.00 L 143.00 302.00 L 142.00 303.00 L 149.00 303.00 L 137.00 310.00 L 141.00 312.00 L 140.00 313.00 L 135.00 312.00 L 137.00 310.00 z M 202.00 308.00 L 201.00 311.00 L 199.00 312.00 L 199.00 311.00 L 201.00 308.00 z M 289.00 298.00 L 291.00 298.00 L 289.00 301.00 L 290.00 310.00 L 286.00 311.00 L 286.00 306.00 L 289.00 301.00 L 289.00 298.00 L 286.00 297.00 L 286.00 295.00 L 289.00 295.00 z M 327.00 311.00 L 326.00 311.00 L 326.00 309.00 z M 41.00 303.00 L 41.00 306.00 L 42.00 310.00 L 41.00 311.00 L 41.00 306.00 L 40.00 303.00 z M 119.00 311.00 L 116.00 310.00 L 120.00 308.00 z M 393.00 305.00 L 396.00 308.00 L 396.00 311.00 L 393.00 305.00 L 373.00 283.00 L 381.00 273.00 z M 229.00 305.00 L 231.00 305.00 L 231.00 309.00 L 232.00 309.00 L 232.00 311.00 L 231.00 311.00 L 231.00 309.00 L 228.00 306.00 L 229.00 305.00 L 228.00 304.00 L 230.00 304.00 z M 292.00 296.00 L 298.00 299.00 L 299.00 299.00 L 301.00 307.00 L 290.00 310.00 L 298.00 299.00 L 291.00 298.00 L 292.00 296.00 L 289.00 295.00 L 289.00 294.00 L 295.00 292.00 z M 104.00 307.00 L 103.00 309.00 L 99.00 309.00 L 101.00 306.00 z M 51.00 304.00 L 50.00 307.00 L 46.00 309.00 L 46.00 304.00 z M 142.00 302.00 L 134.00 309.00 L 132.00 308.00 L 137.00 302.00 z M 302.00 309.00 L 301.00 307.00 L 305.00 306.00 z M 109.00 308.00 L 104.00 307.00 L 107.00 304.00 z M 205.00 308.00 L 202.00 308.00 L 204.00 305.00 z M 76.00 307.00 L 69.00 306.00 L 68.00 299.00 L 70.00 298.00 L 79.00 301.00 z M 325.00 303.00 L 329.00 303.00 L 330.00 306.00 L 325.00 303.00 L 324.00 302.00 L 323.00 302.00 L 324.00 301.00 z M 181.00 306.00 L 180.00 306.00 L 180.00 305.00 z M 234.00 300.00 L 231.00 290.00 L 239.00 293.00 L 234.00 300.00 L 234.00 303.00 L 231.00 303.00 L 231.00 302.00 z M 310.00 301.00 L 310.00 300.00 L 308.00 300.00 L 308.00 291.00 L 310.00 292.00 L 310.00 300.00 L 311.00 301.00 L 310.00 301.00 L 310.00 304.00 L 308.00 303.00 z M 68.00 300.00 L 60.00 303.00 L 68.00 299.00 z M 320.00 302.00 L 321.00 302.00 L 321.00 303.00 L 320.00 304.00 L 319.00 302.00 L 321.00 301.00 z M 226.00 303.00 L 226.00 304.00 L 225.00 303.00 z M 122.00 301.00 L 121.00 303.00 L 114.00 300.00 z M 129.00 301.00 L 131.00 301.00 L 128.00 303.00 L 129.00 301.00 L 122.00 301.00 L 124.00 291.00 L 124.00 294.00 L 139.00 285.00 z M 223.00 286.00 L 222.00 287.00 L 222.00 288.00 L 230.00 289.00 L 230.00 292.00 L 226.00 303.00 L 224.00 300.00 L 222.00 288.00 L 221.00 288.00 L 222.00 287.00 L 222.00 286.00 z M 318.00 303.00 L 317.00 302.00 L 319.00 302.00 z M 323.00 302.00 L 321.00 302.00 L 320.00 301.00 L 323.00 301.00 z M 81.00 297.00 L 87.00 297.00 L 87.00 298.00 L 84.00 302.00 L 79.00 301.00 L 81.00 297.00 L 75.00 296.00 L 82.00 293.00 z M 210.00 286.00 L 208.00 289.00 L 210.00 290.00 L 208.00 295.00 L 210.00 296.00 L 205.00 302.00 L 208.00 295.00 L 203.00 293.00 L 208.00 289.00 L 204.00 286.00 z M 221.00 300.00 L 221.00 301.00 L 214.00 298.00 L 216.00 295.00 z M 317.00 301.00 L 311.00 301.00 L 314.00 297.00 z M 253.00 280.00 L 249.00 292.00 L 263.00 294.00 L 262.00 296.00 L 252.00 298.00 L 255.00 300.00 L 251.00 298.00 L 252.00 298.00 L 249.00 296.00 L 249.00 292.00 L 250.00 279.00 L 251.00 279.00 z M 325.00 298.00 L 323.00 300.00 L 320.00 291.00 L 321.00 291.00 z M 123.00 284.00 L 111.00 299.00 L 105.00 296.00 L 107.00 292.00 L 123.00 279.00 z M 103.00 295.00 L 105.00 296.00 L 104.00 298.00 L 102.00 295.00 z M 299.00 299.00 L 298.00 299.00 L 298.00 298.00 z M 97.00 285.00 L 93.00 287.00 L 93.00 289.00 L 91.00 289.00 L 93.00 290.00 L 92.00 292.00 L 87.00 297.00 L 84.00 293.00 L 91.00 289.00 L 90.00 289.00 L 93.00 287.00 L 95.00 281.00 z M 167.00 292.00 L 158.00 297.00 L 166.00 290.00 z M 231.00 297.00 L 230.00 292.00 L 231.00 291.00 z M 240.00 291.00 L 241.00 291.00 L 240.00 292.00 L 248.00 296.00 L 248.00 297.00 L 239.00 293.00 L 240.00 292.00 L 238.00 290.00 z M 325.00 292.00 L 330.00 294.00 L 327.00 296.00 L 325.00 292.00 L 320.00 291.00 L 323.00 289.00 z M 200.00 288.00 L 199.00 292.00 L 203.00 293.00 L 200.00 295.00 L 199.00 293.00 L 199.00 291.00 z M 311.00 288.00 L 310.00 288.00 L 314.00 295.00 L 310.00 292.00 L 309.00 288.00 L 310.00 288.00 L 309.00 287.00 z M 101.00 294.00 L 97.00 292.00 L 100.00 290.00 z M 170.00 294.00 L 167.00 292.00 L 170.00 290.00 z M 215.00 287.00 L 212.00 292.00 L 210.00 290.00 L 211.00 287.00 z M 219.00 288.00 L 218.00 285.00 L 218.00 284.00 L 220.00 285.00 L 220.00 288.00 L 221.00 288.00 L 220.00 289.00 L 221.00 292.00 L 220.00 290.00 L 220.00 288.00 z M 286.00 253.00 L 285.00 252.00 L 285.00 238.00 L 286.00 236.00 L 287.00 235.00 L 285.00 232.00 L 285.00 227.00 L 286.00 227.00 L 285.00 225.00 L 285.00 224.00 L 287.00 227.00 L 286.00 227.00 L 288.00 229.00 L 287.00 235.00 L 286.00 236.00 L 286.00 238.00 L 285.00 240.00 L 289.00 248.00 L 289.00 255.00 L 290.00 255.00 L 289.00 256.00 L 289.00 257.00 L 299.00 271.00 L 293.00 282.00 L 300.00 284.00 L 299.00 286.00 L 300.00 286.00 L 298.00 287.00 L 296.00 291.00 L 295.00 288.00 L 298.00 287.00 L 299.00 286.00 L 293.00 282.00 L 289.00 268.00 L 289.00 255.00 z M 318.00 286.00 L 319.00 287.00 L 320.00 291.00 L 315.00 289.00 L 314.00 287.00 L 318.00 286.00 L 316.00 283.00 L 317.00 282.00 z M 241.00 264.00 L 237.00 273.00 L 251.00 279.00 L 250.00 279.00 L 241.00 291.00 L 240.00 291.00 L 232.00 286.00 L 237.00 273.00 L 234.00 272.00 L 230.00 277.00 L 230.00 268.00 L 234.00 264.00 z M 305.00 289.00 L 305.00 290.00 L 304.00 290.00 L 305.00 289.00 L 300.00 286.00 L 307.00 286.00 z M 339.00 288.00 L 337.00 290.00 L 331.00 283.00 z M 325.00 275.00 L 324.00 278.00 L 327.00 280.00 L 323.00 281.00 L 322.00 285.00 L 321.00 285.00 L 322.00 287.00 L 321.00 290.00 L 319.00 287.00 L 318.00 286.00 L 321.00 285.00 L 319.00 282.00 L 323.00 281.00 L 324.00 278.00 L 316.00 273.00 L 319.00 268.00 z M 356.00 276.00 L 355.00 278.00 L 340.00 289.00 L 339.00 288.00 L 356.00 276.00 L 357.00 272.00 L 362.00 271.00 z M 231.00 285.00 L 231.00 289.00 L 229.00 285.00 L 229.00 284.00 L 226.00 282.00 L 228.00 280.00 L 229.00 282.00 L 229.00 285.00 z M 95.00 281.00 L 85.00 287.00 L 91.00 274.00 z M 273.00 269.00 L 266.00 286.00 L 253.00 280.00 L 254.00 275.00 L 264.00 263.00 z M 109.00 272.00 L 111.00 272.00 L 107.00 280.00 L 99.00 284.00 L 109.00 272.00 L 108.00 272.00 L 111.00 270.00 z M 308.00 284.00 L 307.00 282.00 L 304.00 278.00 L 308.00 272.00 z M 182.00 282.00 L 180.00 284.00 L 180.00 282.00 z M 111.00 279.00 L 113.00 276.00 L 112.00 278.00 L 111.00 279.00 L 106.00 283.00 L 107.00 280.00 z M 329.00 279.00 L 330.00 282.00 L 327.00 280.00 z M 228.00 270.00 L 226.00 272.00 L 226.00 273.00 L 222.00 279.00 L 226.00 282.00 L 222.00 280.00 L 222.00 279.00 L 221.00 279.00 L 220.00 277.00 L 226.00 272.00 L 224.00 264.00 L 227.00 264.00 z M 180.00 278.00 L 176.00 282.00 L 175.00 277.00 L 180.00 274.00 z M 180.00 281.00 L 180.00 278.00 L 181.00 277.00 z M 359.00 268.00 L 357.00 272.00 L 334.00 278.00 L 331.00 281.00 L 331.00 279.00 L 334.00 278.00 L 352.00 260.00 z M 170.00 280.00 L 175.00 281.00 L 169.00 281.00 L 170.00 280.00 L 170.00 279.00 L 174.00 277.00 z M 169.00 281.00 L 168.00 280.00 L 169.00 280.00 z M 220.00 277.00 L 220.00 279.00 L 219.00 278.00 z M 220.00 274.00 L 219.00 278.00 L 215.00 276.00 L 219.00 268.00 z M 145.00 274.00 L 143.00 277.00 L 130.00 275.00 L 133.00 272.00 L 137.00 270.00 z M 311.00 268.00 L 310.00 269.00 L 312.00 270.00 L 315.00 275.00 L 313.00 277.00 L 309.00 271.00 L 309.00 270.00 L 310.00 269.00 L 309.00 268.00 L 309.00 264.00 z M 89.00 269.00 L 92.00 270.00 L 90.00 271.00 L 91.00 273.00 L 84.00 276.00 L 90.00 271.00 L 89.00 269.00 L 70.00 267.00 L 78.00 249.00 z M 168.00 269.00 L 162.00 276.00 L 157.00 274.00 L 168.00 267.00 z M 195.00 274.00 L 193.00 275.00 L 192.00 273.00 z M 316.00 273.00 L 315.00 275.00 L 314.00 272.00 z M 128.00 275.00 L 128.00 274.00 L 130.00 273.00 z M 230.00 252.00 L 229.00 253.00 L 226.00 255.00 L 227.00 258.00 L 224.00 264.00 L 220.00 274.00 L 220.00 264.00 L 224.00 264.00 L 222.00 258.00 L 223.00 257.00 L 226.00 255.00 L 226.00 249.00 L 229.00 246.00 z M 123.00 273.00 L 121.00 274.00 L 116.00 273.00 L 122.00 267.00 z M 212.00 274.00 L 208.00 271.00 L 205.00 269.00 L 205.00 268.00 L 209.00 266.00 z M 204.00 269.00 L 200.00 271.00 L 201.00 266.00 z M 308.00 269.00 L 308.00 267.00 L 309.00 268.00 L 309.00 271.00 z M 121.00 256.00 L 118.00 257.00 L 120.00 258.00 L 120.00 260.00 L 115.00 261.00 L 114.00 265.00 L 105.00 265.00 L 97.00 269.00 L 97.00 270.00 L 95.00 270.00 L 97.00 269.00 L 98.00 265.00 L 105.00 265.00 L 110.00 262.00 L 115.00 261.00 L 117.00 258.00 L 118.00 257.00 L 117.00 257.00 L 121.00 247.00 z M 184.00 268.00 L 186.00 270.00 L 183.00 269.00 L 184.00 268.00 L 185.00 264.00 L 189.00 264.00 z M 308.00 269.00 L 308.00 270.00 L 306.00 267.00 z M 94.00 270.00 L 92.00 270.00 L 95.00 266.00 z M 112.00 269.00 L 114.00 265.00 L 116.00 265.00 z M 205.00 269.00 L 204.00 269.00 L 204.00 268.00 z M 193.00 267.00 L 192.00 267.00 L 194.00 266.00 z M 122.00 265.00 L 120.00 265.00 L 117.00 266.00 L 118.00 265.00 L 120.00 265.00 L 122.00 263.00 z M 285.00 252.00 L 285.00 253.00 L 286.00 253.00 L 289.00 257.00 L 288.00 266.00 L 285.00 256.00 L 285.00 253.00 L 282.00 247.00 z M 67.00 266.00 L 62.00 266.00 L 60.00 255.00 z M 299.00 247.00 L 304.00 260.00 L 303.00 261.00 L 306.00 266.00 L 302.00 264.00 L 303.00 261.00 L 291.00 241.00 L 291.00 235.00 z M 117.00 257.00 L 117.00 258.00 L 110.00 262.00 L 98.00 264.00 L 98.00 265.00 L 97.00 265.00 L 98.00 264.00 L 109.00 254.00 z M 172.00 265.00 L 171.00 265.00 L 172.00 264.00 z M 309.00 256.00 L 314.00 262.00 L 312.00 265.00 L 309.00 256.00 L 308.00 254.00 L 308.00 252.00 z M 201.00 256.00 L 201.00 255.00 L 203.00 253.00 L 201.00 249.00 L 202.00 246.00 L 206.00 243.00 L 211.00 242.00 L 214.00 239.00 L 213.00 239.00 L 212.00 242.00 L 211.00 242.00 L 203.00 253.00 L 201.00 256.00 L 201.00 260.00 L 197.00 264.00 L 196.00 263.00 z M 217.00 260.00 L 218.00 264.00 L 211.00 264.00 L 217.00 260.00 L 216.00 254.00 L 220.00 252.00 L 220.00 259.00 z M 248.00 243.00 L 243.00 250.00 L 246.00 251.00 L 244.00 255.00 L 234.00 264.00 L 233.00 264.00 L 243.00 250.00 L 239.00 247.00 L 247.00 241.00 z M 49.00 264.00 L 44.00 263.00 L 50.00 260.00 z M 201.00 249.00 L 201.00 255.00 L 193.00 261.00 L 196.00 263.00 L 195.00 263.00 L 193.00 261.00 L 187.00 257.00 L 187.00 254.00 L 199.00 247.00 L 200.00 247.00 z M 222.00 258.00 L 220.00 263.00 L 220.00 259.00 L 222.00 257.00 z M 181.00 258.00 L 176.00 262.00 L 175.00 261.00 L 181.00 254.00 z M 214.00 244.00 L 211.00 247.00 L 209.00 253.00 L 204.00 257.00 L 206.00 259.00 L 201.00 262.00 L 201.00 260.00 L 204.00 257.00 L 203.00 253.00 L 211.00 247.00 L 212.00 242.00 L 214.00 241.00 z M 122.00 259.00 L 122.00 260.00 L 120.00 260.00 L 121.00 259.00 z M 216.00 254.00 L 208.00 258.00 L 209.00 253.00 L 215.00 248.00 z M 294.00 258.00 L 290.00 255.00 L 290.00 250.00 z M 337.00 244.00 L 333.00 249.00 L 330.00 258.00 L 330.00 254.00 L 333.00 249.00 L 335.00 242.00 z M 263.00 238.00 L 264.00 239.00 L 254.00 256.00 L 251.00 249.00 z M 187.00 254.00 L 186.00 255.00 L 186.00 257.00 L 185.00 256.00 L 186.00 255.00 L 184.00 251.00 L 189.00 246.00 L 190.00 246.00 z M 93.00 247.00 L 91.00 256.00 L 87.00 244.00 z M 131.00 247.00 L 126.00 253.00 L 122.00 255.00 L 126.00 244.00 z M 184.00 251.00 L 182.00 254.00 L 181.00 254.00 L 182.00 251.00 L 183.00 249.00 z M 182.00 248.00 L 182.00 245.00 L 183.00 248.00 L 182.00 248.00 L 182.00 251.00 L 180.00 253.00 L 175.00 249.00 z M 245.00 235.00 L 241.00 225.00 L 243.00 224.00 L 242.00 224.00 L 253.00 231.00 L 252.00 233.00 L 251.00 234.00 L 245.00 235.00 L 246.00 237.00 L 234.00 244.00 L 239.00 247.00 L 230.00 253.00 L 230.00 252.00 L 233.00 244.00 L 236.00 237.00 z M 251.00 249.00 L 247.00 252.00 L 246.00 251.00 L 248.00 244.00 z M 314.00 219.00 L 316.00 221.00 L 307.00 223.00 L 320.00 226.00 L 308.00 251.00 L 308.00 215.00 L 307.00 215.00 L 307.00 213.00 L 308.00 213.00 L 308.00 212.00 L 307.00 211.00 L 306.00 206.00 L 300.00 203.00 L 304.00 200.00 L 306.00 200.00 L 306.00 206.00 L 308.00 206.00 L 308.00 215.00 z M 282.00 247.00 L 281.00 250.00 L 277.00 247.00 L 280.00 244.00 z M 169.00 242.00 L 178.00 235.00 L 182.00 244.00 L 174.00 249.00 L 170.00 246.00 z M 396.00 247.00 L 395.00 248.00 L 395.00 247.00 z M 176.00 229.00 L 168.00 234.00 L 169.00 242.00 L 167.00 244.00 L 170.00 246.00 L 170.00 248.00 L 166.00 245.00 L 167.00 244.00 L 165.00 243.00 L 165.00 239.00 L 168.00 234.00 L 172.00 227.00 L 175.00 225.00 z M 356.00 217.00 L 350.00 225.00 L 364.00 231.00 L 367.00 239.00 L 372.00 241.00 L 370.00 246.00 L 367.00 239.00 L 349.00 234.00 L 346.00 231.00 L 350.00 225.00 L 342.00 221.00 L 344.00 215.00 L 348.00 210.00 z M 79.00 224.00 L 84.00 238.00 L 82.00 242.00 L 85.00 243.00 L 81.00 245.00 L 82.00 242.00 L 73.00 238.00 L 62.00 217.00 z M 174.00 223.00 L 172.00 227.00 L 167.00 230.00 L 168.00 234.00 L 165.00 236.00 L 165.00 239.00 L 163.00 242.00 L 165.00 243.00 L 165.00 245.00 L 163.00 243.00 L 163.00 242.00 L 160.00 239.00 L 165.00 236.00 L 164.00 233.00 L 167.00 230.00 L 174.00 222.00 z M 219.00 240.00 L 225.00 239.00 L 219.00 244.00 z M 389.00 242.00 L 386.00 241.00 L 376.00 233.00 L 380.00 225.00 z M 121.00 214.00 L 121.00 215.00 L 129.00 221.00 L 128.00 222.00 L 131.00 223.00 L 131.00 224.00 L 124.00 240.00 L 122.00 242.00 L 120.00 242.00 L 119.00 226.00 L 128.00 222.00 L 120.00 216.00 L 121.00 215.00 L 120.00 214.00 z M 139.00 226.00 L 139.00 227.00 L 138.00 228.00 L 139.00 228.00 L 138.00 230.00 L 143.00 234.00 L 136.00 241.00 L 138.00 230.00 L 137.00 228.00 L 138.00 228.00 L 134.00 225.00 L 135.00 224.00 z M 241.00 225.00 L 236.00 237.00 L 230.00 238.00 L 229.00 241.00 L 229.00 238.00 L 230.00 238.00 L 233.00 232.00 L 241.00 225.00 L 240.00 224.00 L 242.00 224.00 z M 155.00 237.00 L 164.00 231.00 L 164.00 225.00 L 166.00 223.00 L 164.00 209.00 L 169.00 208.00 L 168.00 207.00 L 173.00 205.00 L 176.00 207.00 L 169.00 208.00 L 172.00 217.00 L 166.00 223.00 L 167.00 230.00 L 164.00 231.00 L 164.00 233.00 L 159.00 239.00 L 160.00 239.00 L 159.00 240.00 L 159.00 239.00 z M 202.00 224.00 L 194.00 235.00 L 196.00 238.00 L 191.00 240.00 L 193.00 236.00 L 194.00 235.00 L 193.00 233.00 L 197.00 220.00 z M 223.00 237.00 L 219.00 240.00 L 219.00 238.00 L 221.00 235.00 z M 297.00 240.00 L 292.00 234.00 L 292.00 230.00 L 293.00 229.00 z M 229.00 238.00 L 226.00 239.00 L 229.00 236.00 z M 215.00 232.00 L 215.00 233.00 L 216.00 236.00 L 213.00 239.00 L 213.00 238.00 L 215.00 233.00 L 214.00 232.00 z M 321.00 226.00 L 316.00 221.00 L 317.00 221.00 L 314.00 219.00 L 308.00 213.00 L 318.00 211.00 L 326.00 215.00 L 321.00 226.00 L 321.00 227.00 L 329.00 229.00 L 329.00 235.00 L 331.00 237.00 L 329.00 238.00 L 329.00 235.00 L 320.00 226.00 z M 164.00 225.00 L 153.00 235.00 L 155.00 237.00 L 154.00 237.00 L 152.00 236.00 L 153.00 235.00 L 146.00 231.00 L 162.00 211.00 z M 219.00 235.00 L 219.00 236.00 L 216.00 237.00 L 216.00 236.00 L 217.00 233.00 z M 271.00 230.00 L 267.00 233.00 L 269.00 231.00 z M 288.00 236.00 L 287.00 235.00 L 288.00 234.00 z M 237.00 221.00 L 236.00 225.00 L 229.00 226.00 L 229.00 230.00 L 221.00 235.00 L 226.00 227.00 L 229.00 226.00 L 229.00 222.00 L 235.00 219.00 z M 233.00 232.00 L 230.00 235.00 L 234.00 229.00 z M 111.00 211.00 L 109.00 212.00 L 104.00 233.00 L 103.00 234.00 L 97.00 232.00 L 101.00 216.00 L 109.00 212.00 L 109.00 210.00 z M 229.00 215.00 L 229.00 218.00 L 224.00 224.00 L 221.00 226.00 L 222.00 227.00 L 221.00 229.00 L 219.00 234.00 L 219.00 231.00 L 221.00 229.00 L 221.00 226.00 L 224.00 212.00 z M 264.00 221.00 L 257.00 230.00 L 254.00 232.00 L 256.00 233.00 L 255.00 233.00 L 252.00 234.00 L 252.00 233.00 L 254.00 232.00 L 253.00 231.00 L 257.00 221.00 L 263.00 220.00 z M 269.00 224.00 L 267.00 225.00 L 268.00 227.00 L 267.00 229.00 L 263.00 232.00 L 256.00 233.00 L 257.00 230.00 L 267.00 225.00 L 264.00 221.00 L 265.00 220.00 L 270.00 219.00 z M 345.00 208.00 L 346.00 208.00 L 344.00 215.00 L 341.00 221.00 L 342.00 221.00 L 340.00 225.00 L 346.00 231.00 L 345.00 233.00 L 339.00 231.00 L 340.00 225.00 L 339.00 224.00 L 341.00 221.00 L 332.00 217.00 L 328.00 213.00 L 328.00 210.00 L 329.00 209.00 L 341.00 207.00 z M 271.00 227.00 L 269.00 228.00 L 270.00 229.00 L 269.00 231.00 L 267.00 231.00 L 267.00 229.00 L 269.00 228.00 L 268.00 227.00 L 269.00 224.00 L 274.00 221.00 z M 216.00 207.00 L 210.00 214.00 L 211.00 218.00 L 210.00 220.00 L 211.00 220.00 L 212.00 221.00 L 211.00 223.00 L 212.00 230.00 L 207.00 227.00 L 208.00 225.00 L 211.00 223.00 L 210.00 220.00 L 209.00 215.00 L 210.00 214.00 L 209.00 211.00 L 214.00 206.00 z M 332.00 217.00 L 339.00 224.00 L 335.00 230.00 L 329.00 229.00 L 329.00 216.00 z M 119.00 226.00 L 114.00 229.00 L 119.00 218.00 z M 288.00 229.00 L 287.00 227.00 L 288.00 227.00 z M 224.00 224.00 L 228.00 222.00 L 229.00 220.00 L 229.00 218.00 L 230.00 216.00 L 231.00 217.00 L 229.00 220.00 L 229.00 222.00 L 228.00 222.00 L 226.00 227.00 L 222.00 227.00 z M 221.00 226.00 L 219.00 227.00 L 219.00 225.00 z M 237.00 226.00 L 235.00 227.00 L 236.00 225.00 L 238.00 225.00 z M 134.00 225.00 L 134.00 226.00 L 131.00 224.00 z M 139.00 226.00 L 142.00 217.00 L 155.00 212.00 z M 237.00 226.00 L 236.00 226.00 L 237.00 225.00 z M 295.00 207.00 L 294.00 208.00 L 295.00 209.00 L 296.00 211.00 L 294.00 213.00 L 293.00 215.00 L 292.00 215.00 L 291.00 218.00 L 293.00 219.00 L 292.00 226.00 L 290.00 221.00 L 291.00 218.00 L 288.00 218.00 L 288.00 216.00 L 292.00 215.00 L 292.00 213.00 L 294.00 213.00 L 294.00 207.00 z M 276.00 224.00 L 275.00 224.00 L 274.00 221.00 z M 257.00 211.00 L 247.00 220.00 L 242.00 223.00 L 243.00 221.00 L 256.00 210.00 z M 255.00 209.00 L 246.00 214.00 L 243.00 221.00 L 240.00 223.00 L 239.00 222.00 L 246.00 214.00 L 246.00 213.00 L 251.00 207.00 z M 281.00 220.00 L 279.00 222.00 L 277.00 219.00 L 279.00 218.00 z M 143.00 204.00 L 138.00 217.00 L 130.00 221.00 L 121.00 214.00 L 127.00 201.00 L 135.00 197.00 z M 219.00 209.00 L 219.00 213.00 L 212.00 221.00 L 211.00 220.00 L 211.00 218.00 L 217.00 208.00 z M 283.00 219.00 L 281.00 217.00 L 285.00 217.00 z M 142.00 217.00 L 137.00 219.00 L 138.00 217.00 L 142.00 215.00 z M 202.00 187.00 L 204.00 194.00 L 203.00 194.00 L 204.00 195.00 L 203.00 198.00 L 206.00 200.00 L 206.00 202.00 L 202.00 203.00 L 199.00 212.00 L 198.00 213.00 L 199.00 213.00 L 199.00 215.00 L 193.00 218.00 L 191.00 216.00 L 198.00 213.00 L 186.00 206.00 L 194.00 208.00 L 194.00 204.00 L 202.00 203.00 L 203.00 198.00 L 199.00 196.00 L 203.00 194.00 L 197.00 193.00 L 202.00 187.00 L 202.00 186.00 L 203.00 185.00 L 204.00 185.00 z M 219.00 218.00 L 219.00 213.00 L 221.00 211.00 z M 288.00 218.00 L 286.00 217.00 L 288.00 216.00 z M 285.00 217.00 L 283.00 216.00 L 285.00 215.00 z M 61.00 216.00 L 53.00 200.00 L 68.00 192.00 z M 104.00 207.00 L 109.00 210.00 L 102.00 215.00 L 104.00 207.00 L 101.00 204.00 L 109.00 187.00 z M 272.00 213.00 L 271.00 215.00 L 270.00 213.00 z M 285.00 201.00 L 286.00 201.00 L 288.00 203.00 L 288.00 214.00 L 287.00 215.00 L 284.00 205.00 L 286.00 201.00 L 285.00 201.00 L 283.00 200.00 L 283.00 199.00 z M 360.00 211.00 L 358.00 215.00 L 356.00 210.00 z M 377.00 201.00 L 368.00 203.00 L 374.00 214.00 L 360.00 211.00 L 363.00 207.00 L 356.00 204.00 L 368.00 203.00 L 365.00 197.00 L 364.00 197.00 z M 273.00 211.00 L 272.00 213.00 L 271.00 212.00 L 272.00 210.00 z M 184.00 209.00 L 184.00 212.00 L 183.00 210.00 L 184.00 209.00 L 184.00 206.00 L 186.00 206.00 z M 275.00 206.00 L 274.00 208.00 L 273.00 209.00 L 278.00 212.00 L 273.00 210.00 L 273.00 209.00 L 274.00 208.00 L 274.00 205.00 z M 329.00 209.00 L 328.00 209.00 L 328.00 210.00 L 327.00 212.00 L 325.00 210.00 L 328.00 209.00 L 328.00 207.00 L 330.00 206.00 z M 182.00 209.00 L 183.00 210.00 L 182.00 211.00 L 181.00 210.00 L 182.00 209.00 L 181.00 207.00 L 182.00 206.00 L 184.00 206.00 z M 212.00 204.00 L 213.00 205.00 L 208.00 209.00 L 209.00 211.00 L 208.00 211.00 L 208.00 207.00 z M 268.00 208.00 L 263.00 211.00 L 261.00 210.00 L 262.00 206.00 L 263.00 206.00 z M 269.00 206.00 L 268.00 203.00 L 272.00 201.00 L 271.00 199.00 L 276.00 195.00 L 275.00 195.00 L 276.00 194.00 L 277.00 194.00 L 276.00 195.00 L 277.00 196.00 L 276.00 199.00 L 272.00 201.00 L 274.00 205.00 L 270.00 207.00 L 273.00 209.00 L 272.00 210.00 L 270.00 207.00 z M 298.00 202.00 L 299.00 204.00 L 298.00 205.00 L 300.00 206.00 L 301.00 208.00 L 299.00 210.00 L 295.00 207.00 L 298.00 205.00 L 295.00 201.00 L 296.00 201.00 z M 221.00 210.00 L 219.00 209.00 L 219.00 205.00 L 221.00 201.00 L 222.00 200.00 L 224.00 200.00 z M 164.00 209.00 L 162.00 209.00 L 162.00 206.00 L 163.00 205.00 z M 271.00 209.00 L 270.00 209.00 L 270.00 207.00 z M 181.00 207.00 L 179.00 209.00 L 176.00 207.00 L 181.00 206.00 z M 118.00 207.00 L 118.00 203.00 L 132.00 193.00 L 127.00 201.00 z M 268.00 203.00 L 267.00 202.00 L 268.00 202.00 L 268.00 201.00 L 270.00 199.00 L 267.00 193.00 L 269.00 193.00 L 268.00 192.00 L 268.00 191.00 L 271.00 192.00 L 269.00 193.00 L 273.00 193.00 L 275.00 195.00 L 270.00 199.00 L 271.00 199.00 L 268.00 202.00 L 268.00 203.00 L 270.00 206.00 L 267.00 204.00 z M 352.00 200.00 L 348.00 201.00 L 352.00 203.00 L 351.00 205.00 L 346.00 206.00 L 348.00 201.00 L 350.00 195.00 z M 227.00 201.00 L 228.00 201.00 L 228.00 203.00 L 226.00 206.00 L 227.00 201.00 L 223.00 200.00 L 227.00 199.00 z M 263.00 206.00 L 262.00 205.00 L 263.00 204.00 z M 187.00 201.00 L 187.00 200.00 L 188.00 200.00 L 195.00 193.00 L 195.00 196.00 L 193.00 198.00 L 188.00 200.00 L 187.00 201.00 L 184.00 205.00 L 186.00 206.00 L 184.00 206.00 L 184.00 204.00 z M 147.00 195.00 L 146.00 196.00 L 144.00 205.00 L 143.00 204.00 L 146.00 196.00 L 140.00 194.00 L 148.00 189.00 z M 162.00 200.00 L 163.00 205.00 L 162.00 205.00 L 161.00 200.00 z M 194.00 204.00 L 187.00 205.00 L 193.00 198.00 L 195.00 197.00 z M 331.00 205.00 L 328.00 205.00 L 328.00 194.00 L 334.00 199.00 z M 266.00 204.00 L 266.00 205.00 L 265.00 204.00 L 267.00 203.00 L 266.00 202.00 L 267.00 202.00 L 265.00 199.00 L 266.00 196.00 L 268.00 201.00 L 267.00 202.00 L 267.00 204.00 z M 184.00 201.00 L 185.00 194.00 L 191.00 191.00 L 192.00 191.00 L 187.00 200.00 L 184.00 201.00 L 184.00 204.00 L 183.00 205.00 L 180.00 203.00 z M 179.00 202.00 L 180.00 203.00 L 180.00 205.00 L 177.00 204.00 L 180.00 203.00 L 179.00 202.00 L 174.00 199.00 L 177.00 198.00 z M 266.00 202.00 L 265.00 203.00 L 265.00 204.00 L 264.00 204.00 L 265.00 203.00 L 264.00 202.00 L 265.00 200.00 z M 288.00 203.00 L 286.00 201.00 L 288.00 198.00 z M 348.00 201.00 L 340.00 203.00 L 334.00 199.00 L 335.00 196.00 z M 221.00 201.00 L 219.00 203.00 L 219.00 202.00 L 222.00 200.00 L 221.00 200.00 z M 300.00 203.00 L 298.00 202.00 L 297.00 200.00 z M 353.00 203.00 L 352.00 203.00 L 353.00 202.00 z M 249.00 200.00 L 251.00 201.00 L 251.00 202.00 L 249.00 200.00 L 246.00 199.00 L 247.00 197.00 z M 230.00 201.00 L 230.00 202.00 L 228.00 201.00 L 228.00 199.00 L 229.00 199.00 z M 295.00 201.00 L 288.00 198.00 L 288.00 197.00 L 292.00 197.00 z M 305.00 175.00 L 307.00 175.00 L 307.00 178.00 L 309.00 179.00 L 315.00 181.00 L 313.00 182.00 L 307.00 186.00 L 315.00 189.00 L 308.00 196.00 L 308.00 200.00 L 306.00 200.00 L 306.00 197.00 L 308.00 196.00 L 307.00 186.00 L 307.00 184.00 L 313.00 182.00 L 309.00 179.00 L 307.00 178.00 L 305.00 176.00 L 305.00 175.00 L 304.00 174.00 L 303.00 174.00 L 303.00 171.00 L 305.00 168.00 z M 176.00 195.00 L 173.00 199.00 L 171.00 198.00 L 175.00 194.00 z M 218.00 199.00 L 206.00 195.00 L 205.00 193.00 L 218.00 189.00 z M 306.00 185.00 L 299.00 188.00 L 298.00 191.00 L 296.00 192.00 L 295.00 196.00 L 296.00 198.00 L 295.00 198.00 L 295.00 196.00 L 294.00 194.00 L 296.00 192.00 L 296.00 190.00 L 299.00 188.00 L 300.00 183.00 z M 158.00 178.00 L 159.00 182.00 L 159.00 183.00 L 160.00 186.00 L 160.00 192.00 L 161.00 192.00 L 162.00 198.00 L 161.00 197.00 L 160.00 192.00 L 152.00 187.00 L 159.00 183.00 L 159.00 182.00 L 153.00 181.00 L 155.00 174.00 L 156.00 174.00 z M 244.00 198.00 L 242.00 197.00 L 245.00 197.00 z M 44.00 182.00 L 50.00 174.00 L 52.00 197.00 z M 253.00 197.00 L 251.00 196.00 L 254.00 195.00 z M 280.00 194.00 L 280.00 195.00 L 282.00 195.00 L 283.00 196.00 L 282.00 196.00 L 281.00 197.00 L 280.00 195.00 L 277.00 194.00 L 278.00 193.00 z M 251.00 196.00 L 247.00 196.00 L 248.00 194.00 z M 286.00 191.00 L 283.00 195.00 L 284.00 196.00 L 283.00 196.00 L 283.00 195.00 L 282.00 195.00 L 280.00 194.00 L 279.00 192.00 L 280.00 191.00 L 285.00 190.00 z M 284.00 173.00 L 286.00 177.00 L 287.00 178.00 L 287.00 180.00 L 292.00 190.00 L 291.00 192.00 L 290.00 193.00 L 291.00 193.00 L 290.00 195.00 L 290.00 196.00 L 289.00 196.00 L 290.00 195.00 L 288.00 193.00 L 290.00 193.00 L 287.00 190.00 L 287.00 180.00 L 286.00 177.00 L 283.00 176.00 L 284.00 173.00 L 283.00 171.00 L 279.00 171.00 L 280.00 169.00 L 282.00 170.00 L 284.00 172.00 z M 247.00 193.00 L 246.00 195.00 L 244.00 194.00 L 245.00 192.00 z M 294.00 194.00 L 292.00 195.00 L 291.00 193.00 L 291.00 192.00 L 293.00 191.00 z M 359.00 192.00 L 357.00 195.00 L 351.00 192.00 L 352.00 187.00 z M 261.00 195.00 L 260.00 195.00 L 260.00 194.00 z M 259.00 185.00 L 264.00 188.00 L 264.00 190.00 L 263.00 191.00 L 265.00 192.00 L 265.00 193.00 L 262.00 194.00 L 262.00 193.00 L 263.00 191.00 L 260.00 191.00 L 258.00 187.00 L 258.00 185.00 z M 196.00 192.00 L 197.00 193.00 L 196.00 194.00 L 195.00 193.00 L 196.00 192.00 L 195.00 192.00 L 195.00 189.00 L 202.00 186.00 z M 159.00 183.00 L 160.00 182.00 L 160.00 183.00 L 159.00 183.00 L 163.00 193.00 L 161.00 192.00 L 160.00 186.00 L 160.00 183.00 L 159.00 183.00 L 160.00 182.00 L 159.00 180.00 z M 240.00 189.00 L 233.00 193.00 L 231.00 193.00 L 237.00 188.00 z M 268.00 192.00 L 267.00 193.00 L 267.00 192.00 z M 280.00 185.00 L 279.00 191.00 L 278.00 191.00 L 278.00 192.00 L 277.00 193.00 L 275.00 192.00 L 278.00 191.00 L 279.00 191.00 L 274.00 178.00 z M 275.00 192.00 L 274.00 192.00 L 274.00 191.00 z M 279.00 192.00 L 279.00 191.00 L 280.00 191.00 z M 142.00 185.00 L 132.00 192.00 L 137.00 182.00 z M 232.00 184.00 L 230.00 185.00 L 228.00 188.00 L 228.00 191.00 L 227.00 191.00 L 227.00 190.00 L 228.00 188.00 L 228.00 185.00 L 230.00 185.00 L 230.00 184.00 z M 228.00 185.00 L 227.00 190.00 L 226.00 191.00 L 226.00 190.00 L 225.00 189.00 L 227.00 186.00 L 228.00 185.00 L 228.00 184.00 L 229.00 183.00 z M 256.00 184.00 L 258.00 187.00 L 257.00 188.00 L 258.00 191.00 L 256.00 190.00 L 257.00 188.00 L 255.00 183.00 z M 195.00 189.00 L 193.00 190.00 L 195.00 186.00 z M 228.00 182.00 L 228.00 184.00 L 227.00 186.00 L 224.00 187.00 L 225.00 189.00 L 225.00 190.00 L 220.00 188.00 L 224.00 187.00 L 221.00 178.00 z M 255.00 183.00 L 253.00 186.00 L 257.00 190.00 L 250.00 189.00 L 253.00 186.00 L 252.00 184.00 L 253.00 182.00 L 252.00 182.00 z M 104.00 167.00 L 102.00 167.00 L 107.00 171.00 L 97.00 177.00 L 76.00 178.00 L 89.00 181.00 L 75.00 189.00 L 70.00 185.00 L 75.00 165.00 z M 264.00 187.00 L 264.00 188.00 L 263.00 187.00 z M 186.00 174.00 L 185.00 185.00 L 184.00 186.00 L 182.00 189.00 L 181.00 188.00 L 184.00 186.00 L 170.00 176.00 L 176.00 173.00 z M 253.00 182.00 L 251.00 183.00 L 252.00 184.00 L 250.00 189.00 L 247.00 188.00 L 250.00 183.00 L 251.00 183.00 L 251.00 182.00 z M 240.00 187.00 L 243.00 187.00 L 241.00 188.00 L 240.00 187.00 L 239.00 187.00 L 239.00 186.00 z M 115.00 180.00 L 114.00 188.00 L 110.00 187.00 L 114.00 178.00 z M 152.00 187.00 L 149.00 188.00 L 150.00 186.00 z M 274.00 178.00 L 273.00 178.00 L 269.00 188.00 L 267.00 186.00 L 273.00 178.00 L 273.00 177.00 z M 251.00 183.00 L 250.00 183.00 L 243.00 187.00 L 249.00 181.00 z M 185.00 186.00 L 184.00 186.00 L 185.00 185.00 z M 307.00 178.00 L 307.00 184.00 L 306.00 185.00 L 306.00 178.00 z M 204.00 185.00 L 204.00 184.00 L 206.00 182.00 z M 239.00 176.00 L 235.00 181.00 L 236.00 182.00 L 231.00 184.00 L 232.00 184.00 L 235.00 181.00 L 233.00 178.00 L 235.00 175.00 z M 277.00 168.00 L 276.00 170.00 L 279.00 171.00 L 276.00 174.00 L 283.00 176.00 L 281.00 183.00 L 275.00 176.00 L 276.00 174.00 L 275.00 173.00 L 276.00 170.00 L 274.00 170.00 L 277.00 168.00 L 275.00 168.00 L 277.00 167.00 z M 287.00 172.00 L 297.00 175.00 L 297.00 182.00 L 287.00 178.00 z M 323.00 177.00 L 316.00 181.00 L 315.00 181.00 L 322.00 177.00 z M 248.00 178.00 L 249.00 178.00 L 248.00 179.00 L 249.00 181.00 L 247.00 180.00 L 248.00 179.00 L 247.00 178.00 L 248.00 178.00 L 245.00 176.00 L 243.00 173.00 L 244.00 172.00 z M 344.00 171.00 L 347.00 172.00 L 344.00 179.00 L 344.00 180.00 L 343.00 180.00 L 344.00 179.00 L 340.00 170.00 z M 339.00 168.00 L 337.00 169.00 L 338.00 170.00 L 335.00 171.00 L 333.00 172.00 L 343.00 180.00 L 327.00 178.00 L 333.00 172.00 L 335.00 171.00 L 338.00 168.00 z M 247.00 169.00 L 248.00 170.00 L 249.00 173.00 L 251.00 177.00 L 249.00 178.00 L 245.00 171.00 z M 115.00 179.00 L 114.00 178.00 L 115.00 176.00 L 116.00 176.00 z M 205.00 169.00 L 204.00 171.00 L 201.00 171.00 L 202.00 174.00 L 199.00 179.00 L 200.00 179.00 L 198.00 173.00 L 201.00 171.00 L 201.00 170.00 L 204.00 168.00 L 201.00 166.00 L 205.00 162.00 L 206.00 162.00 L 207.00 160.00 L 200.00 159.00 L 201.00 158.00 L 199.00 158.00 L 197.00 146.00 L 209.00 154.00 L 201.00 158.00 L 208.00 158.00 L 207.00 160.00 L 210.00 161.00 L 209.00 162.00 L 206.00 162.00 L 209.00 163.00 L 204.00 168.00 z M 214.00 174.00 L 208.00 179.00 L 209.00 178.00 L 213.00 173.00 z M 248.00 171.00 L 253.00 175.00 L 251.00 176.00 L 251.00 177.00 L 252.00 178.00 L 250.00 179.00 L 249.00 179.00 L 249.00 178.00 L 251.00 177.00 L 251.00 176.00 L 249.00 173.00 L 248.00 171.00 L 248.00 170.00 L 247.00 169.00 z M 245.00 176.00 L 247.00 178.00 L 245.00 179.00 L 239.00 176.00 L 242.00 174.00 z M 333.00 172.00 L 327.00 175.00 L 327.00 178.00 L 323.00 177.00 L 326.00 175.00 L 327.00 175.00 L 332.00 172.00 z M 227.00 169.00 L 223.00 169.00 L 227.00 171.00 L 227.00 173.00 L 220.00 177.00 L 218.00 171.00 L 218.00 170.00 L 223.00 169.00 L 220.00 168.00 L 224.00 164.00 z M 252.00 177.00 L 251.00 177.00 L 253.00 176.00 z M 233.00 174.00 L 232.00 176.00 L 231.00 174.00 L 231.00 173.00 z M 258.00 169.00 L 256.00 173.00 L 254.00 175.00 L 253.00 175.00 L 256.00 173.00 L 253.00 168.00 L 257.00 167.00 L 252.00 167.00 L 251.00 165.00 L 251.00 164.00 L 250.00 164.00 L 249.00 162.00 L 253.00 161.00 L 255.00 161.00 L 251.00 164.00 L 257.00 166.00 L 257.00 168.00 z M 120.00 169.00 L 131.00 175.00 L 122.00 172.00 L 118.00 170.00 L 118.00 169.00 z M 272.00 172.00 L 275.00 173.00 L 274.00 175.00 L 272.00 173.00 L 272.00 172.00 L 271.00 172.00 L 271.00 171.00 z M 152.00 171.00 L 152.00 174.00 L 140.00 174.00 L 142.00 170.00 z M 303.00 171.00 L 302.00 173.00 L 303.00 174.00 L 302.00 174.00 L 302.00 173.00 L 298.00 170.00 L 298.00 165.00 L 305.00 165.00 z M 166.00 174.00 L 164.00 173.00 L 166.00 173.00 z M 186.00 167.00 L 186.00 172.00 L 182.00 172.00 L 186.00 173.00 L 186.00 174.00 L 182.00 172.00 L 179.00 171.00 L 186.00 167.00 L 186.00 163.00 L 194.00 163.00 z M 34.00 162.00 L 34.00 163.00 L 39.00 166.00 L 39.00 173.00 L 34.00 163.00 L 32.00 162.00 z M 159.00 172.00 L 157.00 173.00 L 157.00 172.00 z M 163.00 172.00 L 164.00 173.00 L 159.00 173.00 L 159.00 172.00 z M 259.00 168.00 L 258.00 170.00 L 258.00 171.00 L 257.00 172.00 L 257.00 173.00 L 256.00 173.00 L 257.00 172.00 L 257.00 171.00 L 258.00 170.00 L 258.00 168.00 z M 182.00 172.00 L 177.00 172.00 L 179.00 171.00 z M 164.00 167.00 L 163.00 168.00 L 165.00 172.00 L 163.00 172.00 L 160.00 170.00 L 163.00 168.00 L 163.00 167.00 z M 271.00 170.00 L 269.00 170.00 L 271.00 172.00 L 268.00 171.00 L 269.00 170.00 L 269.00 169.00 z M 288.00 172.00 L 284.00 172.00 L 284.00 171.00 z M 111.00 169.00 L 108.00 171.00 L 106.00 168.00 z M 200.00 166.00 L 201.00 166.00 L 201.00 171.00 L 197.00 171.00 L 201.00 167.00 L 200.00 166.00 L 196.00 163.00 L 196.00 162.00 L 200.00 162.00 L 199.00 159.00 L 200.00 159.00 L 206.00 162.00 L 200.00 162.00 z M 235.00 170.00 L 232.00 171.00 L 233.00 169.00 z M 360.00 159.00 L 351.00 163.00 L 347.00 171.00 L 344.00 171.00 L 340.00 169.00 L 351.00 163.00 L 352.00 160.00 L 355.00 159.00 z M 217.00 169.00 L 216.00 166.00 L 218.00 167.00 L 217.00 169.00 L 217.00 170.00 L 216.00 170.00 z M 158.00 168.00 L 157.00 170.00 L 157.00 168.00 z M 114.00 168.00 L 114.00 170.00 L 111.00 169.00 L 113.00 168.00 z M 267.00 170.00 L 265.00 169.00 L 266.00 169.00 z M 275.00 168.00 L 271.00 170.00 L 270.00 167.00 L 271.00 167.00 z M 116.00 168.00 L 117.00 168.00 L 117.00 169.00 L 116.00 168.00 L 114.00 168.00 L 114.00 167.00 z M 239.00 168.00 L 239.00 169.00 L 236.00 169.00 L 238.00 168.00 z M 241.00 167.00 L 242.00 168.00 L 239.00 169.00 L 239.00 167.00 z M 245.00 168.00 L 244.00 168.00 L 242.00 166.00 z M 247.00 168.00 L 246.00 168.00 L 245.00 166.00 z M 310.00 159.00 L 312.00 156.00 L 316.00 159.00 L 321.00 159.00 L 327.00 162.00 L 327.00 167.00 L 316.00 159.00 z M 264.00 164.00 L 265.00 165.00 L 264.00 167.00 L 263.00 166.00 z M 269.00 159.00 L 267.00 161.00 L 268.00 162.00 L 267.00 164.00 L 266.00 165.00 L 267.00 165.00 L 266.00 166.00 L 267.00 167.00 L 266.00 167.00 L 266.00 166.00 L 265.00 165.00 L 266.00 165.00 L 264.00 164.00 L 267.00 161.00 L 267.00 159.00 z M 269.00 164.00 L 268.00 166.00 L 269.00 166.00 L 270.00 167.00 L 267.00 167.00 L 268.00 166.00 L 267.00 165.00 L 267.00 164.00 L 268.00 163.00 z M 220.00 161.00 L 218.00 161.00 L 218.00 162.00 L 222.00 162.00 L 218.00 167.00 L 218.00 162.00 L 214.00 161.00 L 218.00 161.00 L 218.00 159.00 z M 146.00 163.00 L 147.00 161.00 L 151.00 164.00 L 153.00 165.00 L 153.00 166.00 L 151.00 164.00 z M 167.00 166.00 L 165.00 165.00 L 168.00 164.00 z M 286.00 164.00 L 283.00 165.00 L 281.00 166.00 L 280.00 166.00 L 283.00 165.00 L 287.00 163.00 z M 85.00 142.00 L 91.00 149.00 L 108.00 153.00 L 99.00 157.00 L 101.00 158.00 L 117.00 158.00 L 115.00 166.00 L 101.00 158.00 L 100.00 158.00 L 99.00 157.00 L 95.00 155.00 L 91.00 149.00 L 82.00 147.00 L 80.00 146.00 L 82.00 141.00 z M 158.00 162.00 L 158.00 166.00 L 156.00 165.00 L 155.00 161.00 z M 298.00 163.00 L 298.00 165.00 L 292.00 165.00 L 289.00 163.00 L 292.00 162.00 z M 242.00 161.00 L 242.00 162.00 L 241.00 164.00 L 242.00 165.00 L 241.00 165.00 L 241.00 164.00 L 240.00 162.00 L 241.00 160.00 z M 237.00 162.00 L 236.00 160.00 L 239.00 159.00 L 239.00 160.00 L 240.00 162.00 L 239.00 163.00 L 241.00 165.00 L 239.00 165.00 L 239.00 163.00 z M 155.00 161.00 L 154.00 165.00 L 153.00 165.00 L 151.00 159.00 z M 168.00 158.00 L 162.00 164.00 L 165.00 165.00 L 162.00 165.00 L 162.00 164.00 L 161.00 163.00 L 161.00 162.00 L 162.00 158.00 z M 196.00 162.00 L 195.00 163.00 L 196.00 163.00 L 196.00 165.00 L 195.00 163.00 L 195.00 162.00 L 196.00 161.00 z M 245.00 164.00 L 244.00 165.00 L 242.00 162.00 L 243.00 161.00 z M 238.00 165.00 L 234.00 163.00 L 235.00 160.00 L 239.00 164.00 z M 234.00 163.00 L 234.00 164.00 L 227.00 163.00 L 227.00 160.00 L 232.00 160.00 z M 299.00 160.00 L 305.00 161.00 L 305.00 164.00 L 298.00 163.00 L 299.00 160.00 L 298.00 159.00 L 299.00 159.00 z M 288.00 159.00 L 287.00 161.00 L 289.00 161.00 L 288.00 162.00 L 289.00 163.00 L 287.00 164.00 L 287.00 163.00 L 288.00 162.00 L 287.00 161.00 L 287.00 159.00 z M 48.00 138.00 L 57.00 163.00 L 57.00 164.00 L 48.00 163.00 L 45.00 138.00 z M 225.00 163.00 L 223.00 162.00 L 222.00 162.00 L 223.00 161.00 L 227.00 160.00 z M 31.00 134.00 L 39.00 136.00 L 39.00 163.00 L 34.00 162.00 L 29.00 153.00 L 30.00 134.00 z M 195.00 162.00 L 194.00 162.00 L 188.00 158.00 L 194.00 158.00 z M 307.00 156.00 L 307.00 159.00 L 310.00 159.00 L 309.00 162.00 L 307.00 162.00 L 307.00 159.00 L 306.00 159.00 L 307.00 156.00 L 307.00 155.00 L 313.00 154.00 z M 214.00 161.00 L 213.00 160.00 L 214.00 158.00 z M 255.00 161.00 L 255.00 160.00 L 257.00 159.00 z M 306.00 159.00 L 306.00 161.00 L 305.00 161.00 L 305.00 159.00 z M 237.00 155.00 L 236.00 155.00 L 235.00 152.00 L 237.00 153.00 L 236.00 155.00 L 237.00 155.00 L 239.00 156.00 L 240.00 159.00 L 238.00 159.00 z M 239.00 156.00 L 237.00 153.00 L 239.00 153.00 L 241.00 157.00 L 242.00 157.00 L 242.00 159.00 L 241.00 157.00 z M 132.00 158.00 L 130.00 159.00 L 127.00 158.00 z M 246.00 159.00 L 244.00 159.00 L 245.00 158.00 L 242.00 157.00 L 243.00 156.00 L 246.00 156.00 L 245.00 154.00 L 247.00 154.00 L 245.00 158.00 z M 271.00 157.00 L 274.00 157.00 L 273.00 159.00 L 270.00 158.00 z M 299.00 159.00 L 296.00 159.00 L 294.00 158.00 L 299.00 156.00 z M 280.00 159.00 L 274.00 159.00 L 276.00 157.00 L 281.00 156.00 z M 253.00 155.00 L 254.00 158.00 L 251.00 159.00 L 247.00 159.00 L 246.00 156.00 L 250.00 155.00 z M 235.00 152.00 L 233.00 154.00 L 236.00 155.00 L 236.00 158.00 L 234.00 158.00 L 232.00 155.00 L 233.00 154.00 L 231.00 154.00 L 230.00 152.00 z M 257.00 156.00 L 258.00 158.00 L 256.00 158.00 L 254.00 155.00 z M 221.00 153.00 L 218.00 155.00 L 220.00 158.00 L 218.00 158.00 L 218.00 155.00 L 217.00 151.00 L 216.00 151.00 L 217.00 149.00 L 217.00 151.00 z M 191.00 147.00 L 193.00 145.00 L 197.00 146.00 L 197.00 158.00 L 193.00 156.00 z M 142.00 158.00 L 132.00 158.00 L 138.00 155.00 z M 185.00 157.00 L 187.00 157.00 L 186.00 158.00 L 185.00 157.00 L 179.00 156.00 L 181.00 154.00 z M 265.00 157.00 L 265.00 158.00 L 262.00 158.00 L 263.00 157.00 z M 127.00 148.00 L 128.00 149.00 L 124.00 157.00 L 120.00 156.00 L 122.00 147.00 z M 216.00 153.00 L 218.00 155.00 L 215.00 157.00 L 216.00 153.00 L 215.00 152.00 L 216.00 151.00 z M 274.00 153.00 L 271.00 157.00 L 270.00 157.00 L 272.00 153.00 z M 307.00 156.00 L 305.00 157.00 L 305.00 155.00 L 308.00 155.00 z M 223.00 150.00 L 219.00 147.00 L 220.00 145.00 L 224.00 150.00 L 223.00 150.00 L 225.00 151.00 L 226.00 152.00 L 231.00 154.00 L 232.00 155.00 L 231.00 156.00 L 227.00 153.00 L 225.00 151.00 z M 266.00 156.00 L 265.00 154.00 L 267.00 154.00 z M 225.00 151.00 L 227.00 153.00 L 229.00 156.00 L 221.00 153.00 L 223.00 151.00 z M 305.00 155.00 L 300.00 155.00 L 305.00 153.00 z M 214.00 150.00 L 214.00 151.00 L 210.00 153.00 L 211.00 155.00 L 209.00 154.00 L 210.00 153.00 L 208.00 148.00 z M 265.00 154.00 L 263.00 155.00 L 264.00 153.00 L 265.00 153.00 z M 277.00 153.00 L 279.00 150.00 L 284.00 150.00 L 279.00 155.00 z M 310.00 146.00 L 314.00 131.00 L 323.00 126.00 L 326.00 133.00 L 326.00 149.00 L 312.00 154.00 L 308.00 152.00 L 309.00 150.00 L 320.00 144.00 L 310.00 146.00 L 309.00 150.00 L 307.00 151.00 L 307.00 146.00 z M 277.00 153.00 L 276.00 154.00 L 274.00 153.00 L 276.00 152.00 z M 264.00 152.00 L 264.00 151.00 L 251.00 148.00 L 251.00 146.00 L 256.00 136.00 L 253.00 134.00 L 256.00 130.00 L 258.00 134.00 L 256.00 136.00 L 260.00 139.00 L 264.00 151.00 L 265.00 151.00 L 264.00 152.00 L 265.00 153.00 L 263.00 153.00 z M 356.00 120.00 L 360.00 122.00 L 362.00 136.00 L 331.00 147.00 L 333.00 153.00 L 326.00 153.00 L 326.00 149.00 L 331.00 147.00 L 326.00 133.00 L 325.00 125.00 L 340.00 118.00 z M 190.00 145.00 L 191.00 147.00 L 187.00 150.00 L 187.00 153.00 L 184.00 152.00 L 187.00 150.00 L 187.00 144.00 z M 162.00 142.00 L 159.00 144.00 L 157.00 153.00 L 156.00 145.00 L 159.00 144.00 L 159.00 141.00 z M 157.00 140.00 L 156.00 143.00 L 156.00 145.00 L 154.00 146.00 L 154.00 147.00 L 156.00 153.00 L 154.00 152.00 L 153.00 148.00 L 154.00 147.00 L 154.00 146.00 L 156.00 143.00 L 156.00 140.00 z M 270.00 148.00 L 269.00 147.00 L 274.00 142.00 L 270.00 148.00 L 273.00 150.00 L 273.00 151.00 L 270.00 152.00 L 268.00 152.00 z M 153.00 147.00 L 153.00 148.00 L 151.00 152.00 L 145.00 151.00 L 153.00 147.00 L 153.00 144.00 L 149.00 137.00 L 151.00 138.00 L 154.00 147.00 z M 279.00 150.00 L 277.00 151.00 L 280.00 147.00 L 282.00 146.00 z M 356.00 151.00 L 358.00 150.00 L 363.00 139.00 L 362.00 136.00 L 365.00 135.00 L 368.00 128.00 L 374.00 132.00 L 365.00 135.00 L 363.00 139.00 L 364.00 144.00 L 357.00 151.00 z M 306.00 87.00 L 307.00 88.00 L 306.00 92.00 L 305.00 93.00 L 295.00 121.00 L 286.00 129.00 L 287.00 138.00 L 285.00 140.00 L 286.00 141.00 L 280.00 147.00 L 274.00 150.00 L 273.00 150.00 L 277.00 141.00 L 275.00 140.00 L 278.00 137.00 L 277.00 136.00 L 279.00 137.00 L 278.00 137.00 L 284.00 141.00 L 285.00 140.00 L 279.00 137.00 L 286.00 129.00 L 286.00 120.00 L 299.00 97.00 L 305.00 93.00 L 306.00 87.00 L 305.00 87.00 L 306.00 85.00 z M 213.00 149.00 L 217.00 149.00 L 215.00 150.00 L 214.00 150.00 L 213.00 149.00 L 208.00 148.00 L 203.00 137.00 L 204.00 137.00 z M 291.00 149.00 L 287.00 149.00 L 287.00 148.00 L 292.00 144.00 z M 82.00 147.00 L 85.00 149.00 L 81.00 147.00 z M 148.00 136.00 L 131.00 144.00 L 128.00 148.00 L 127.00 148.00 L 124.00 146.00 L 131.00 144.00 L 137.00 131.00 z M 105.00 134.00 L 121.00 144.00 L 120.00 147.00 L 122.00 147.00 L 119.00 148.00 L 120.00 147.00 L 85.00 142.00 L 83.00 138.00 L 105.00 134.00 L 104.00 133.00 L 110.00 132.00 z M 250.00 146.00 L 251.00 147.00 L 250.00 148.00 L 248.00 147.00 L 247.00 145.00 z M 80.00 73.00 L 78.00 74.00 L 53.00 99.00 L 58.00 103.00 L 55.00 103.00 L 63.00 113.00 L 48.00 118.00 L 56.00 126.00 L 45.00 130.00 L 47.00 136.00 L 68.00 139.00 L 76.00 144.00 L 79.00 146.00 L 80.00 146.00 L 80.00 147.00 L 79.00 146.00 L 48.00 138.00 L 47.00 136.00 L 45.00 136.00 L 44.00 130.00 L 45.00 130.00 L 44.00 126.00 L 43.00 120.00 L 48.00 118.00 L 43.00 114.00 L 42.00 110.00 L 49.00 104.00 L 55.00 103.00 L 52.00 100.00 L 53.00 99.00 L 51.00 98.00 L 39.00 83.00 L 38.00 78.00 L 78.00 74.00 L 79.00 72.00 z M 224.00 140.00 L 224.00 141.00 L 229.00 142.00 L 230.00 144.00 L 227.00 147.00 L 223.00 142.00 L 224.00 141.00 L 222.00 141.00 L 222.00 140.00 z M 299.00 147.00 L 292.00 144.00 L 301.00 137.00 L 300.00 147.00 z M 218.00 146.00 L 217.00 148.00 L 217.00 145.00 z M 307.00 146.00 L 304.00 146.00 L 304.00 135.00 L 307.00 134.00 z M 242.00 145.00 L 243.00 144.00 L 245.00 146.00 z M 253.00 134.00 L 248.00 139.00 L 250.00 146.00 L 247.00 145.00 L 244.00 143.00 L 248.00 139.00 L 245.00 130.00 L 247.00 129.00 z M 140.00 126.00 L 129.00 128.00 L 134.00 130.00 L 125.00 131.00 L 122.00 145.00 L 121.00 144.00 L 124.00 131.00 L 125.00 131.00 L 125.00 129.00 L 129.00 128.00 L 127.00 127.00 L 140.00 124.00 z M 240.00 144.00 L 239.00 145.00 L 238.00 143.00 z M 242.00 135.00 L 241.00 139.00 L 244.00 143.00 L 243.00 144.00 L 240.00 141.00 L 241.00 139.00 L 239.00 136.00 L 241.00 134.00 z M 240.00 141.00 L 240.00 144.00 L 238.00 143.00 L 236.00 139.00 L 237.00 138.00 z M 195.00 135.00 L 196.00 143.00 L 189.00 140.00 L 195.00 135.00 L 195.00 134.00 L 194.00 134.00 L 188.00 132.00 L 194.00 133.00 L 194.00 134.00 L 196.00 134.00 z M 219.00 143.00 L 217.00 141.00 L 217.00 139.00 L 219.00 140.00 z M 234.00 143.00 L 231.00 143.00 L 233.00 142.00 z M 189.00 141.00 L 187.00 142.00 L 187.00 140.00 z M 198.00 130.00 L 195.00 133.00 L 195.00 134.00 L 196.00 134.00 L 198.00 135.00 L 203.00 136.00 L 203.00 137.00 L 197.00 142.00 L 198.00 135.00 L 196.00 134.00 L 195.00 134.00 L 194.00 133.00 L 195.00 133.00 L 193.00 126.00 L 193.00 124.00 L 197.00 124.00 L 193.00 126.00 z M 233.00 142.00 L 230.00 142.00 L 230.00 141.00 z M 225.00 134.00 L 227.00 137.00 L 224.00 140.00 L 222.00 140.00 z M 289.00 135.00 L 295.00 121.00 L 301.00 114.00 L 303.00 107.00 L 303.00 112.00 L 301.00 114.00 L 298.00 125.00 L 294.00 131.00 L 289.00 135.00 L 289.00 137.00 L 287.00 140.00 L 287.00 138.00 z M 217.00 125.00 L 217.00 127.00 L 214.00 129.00 L 217.00 133.00 L 217.00 139.00 L 220.00 139.00 L 222.00 140.00 L 219.00 140.00 L 220.00 139.00 L 217.00 139.00 L 215.00 138.00 L 210.00 132.00 L 214.00 129.00 L 209.00 122.00 L 215.00 122.00 z M 187.00 133.00 L 188.00 136.00 L 187.00 140.00 L 186.00 139.00 L 177.00 134.00 L 182.00 132.00 z M 194.00 134.00 L 188.00 139.00 L 188.00 133.00 z M 221.00 139.00 L 220.00 139.00 L 220.00 137.00 z M 103.00 133.00 L 82.00 138.00 L 83.00 135.00 z M 92.00 102.00 L 70.00 110.00 L 81.00 118.00 L 70.00 122.00 L 80.00 135.00 L 68.00 137.00 L 56.00 126.00 L 70.00 122.00 L 63.00 113.00 L 70.00 110.00 L 58.00 103.00 L 93.00 100.00 z M 229.00 128.00 L 227.00 131.00 L 229.00 135.00 L 227.00 137.00 L 225.00 134.00 L 227.00 131.00 L 226.00 129.00 L 228.00 127.00 z M 210.00 132.00 L 205.00 136.00 L 206.00 136.00 L 201.00 132.00 L 201.00 130.00 L 205.00 126.00 z M 200.00 131.00 L 198.00 133.00 L 198.00 134.00 L 203.00 135.00 L 203.00 136.00 L 198.00 135.00 L 198.00 134.00 L 196.00 134.00 L 198.00 133.00 L 198.00 130.00 z M 83.00 135.00 L 82.00 135.00 L 83.00 134.00 z M 39.00 135.00 L 31.00 134.00 L 39.00 132.00 z M 170.00 129.00 L 177.00 134.00 L 175.00 135.00 L 162.00 130.00 L 167.00 128.00 z M 272.00 133.00 L 272.00 134.00 L 261.00 128.00 L 262.00 127.00 z M 228.00 127.00 L 228.00 126.00 L 229.00 127.00 L 229.00 128.00 L 230.00 128.00 L 231.00 131.00 L 229.00 128.00 z M 234.00 119.00 L 230.00 126.00 L 233.00 130.00 L 230.00 128.00 L 229.00 127.00 L 230.00 126.00 L 229.00 126.00 L 234.00 118.00 z M 218.00 122.00 L 221.00 124.00 L 220.00 125.00 L 223.00 129.00 L 222.00 129.00 L 220.00 125.00 L 218.00 122.00 L 217.00 120.00 L 217.00 116.00 L 222.00 121.00 z M 249.00 111.00 L 245.00 116.00 L 253.00 121.00 L 254.00 123.00 L 253.00 124.00 L 254.00 125.00 L 256.00 129.00 L 250.00 126.00 L 253.00 124.00 L 243.00 119.00 L 245.00 116.00 L 240.00 112.00 L 239.00 111.00 L 242.00 108.00 L 247.00 104.00 z M 161.00 127.00 L 156.00 128.00 L 154.00 127.00 L 154.00 126.00 z M 203.00 113.00 L 204.00 114.00 L 209.00 117.00 L 207.00 118.00 L 208.00 120.00 L 205.00 123.00 L 203.00 123.00 L 204.00 124.00 L 200.00 128.00 L 198.00 124.00 L 198.00 123.00 L 203.00 123.00 L 201.00 121.00 L 207.00 118.00 L 204.00 114.00 L 202.00 113.00 L 203.00 113.00 L 202.00 112.00 L 208.00 111.00 z M 168.00 128.00 L 164.00 127.00 L 169.00 127.00 z M 253.00 121.00 L 249.00 111.00 L 265.00 93.00 L 283.00 89.00 L 274.00 104.00 L 254.00 122.00 L 261.00 126.00 L 260.00 127.00 L 254.00 125.00 L 254.00 122.00 z M 164.00 126.00 L 166.00 127.00 L 164.00 127.00 z M 159.00 122.00 L 155.00 124.00 L 163.00 126.00 L 163.00 127.00 L 154.00 125.00 L 154.00 123.00 L 158.00 122.00 z M 218.00 121.00 L 217.00 122.00 L 218.00 122.00 L 220.00 125.00 L 218.00 126.00 L 217.00 125.00 L 217.00 120.00 z M 39.00 122.00 L 30.00 125.00 L 30.00 123.00 L 38.00 114.00 z M 143.00 123.00 L 145.00 123.00 L 142.00 122.00 L 142.00 121.00 L 145.00 114.00 L 136.00 108.00 L 133.00 102.00 L 134.00 102.00 L 145.00 98.00 L 147.00 110.00 L 145.00 114.00 L 148.00 115.00 L 149.00 122.00 L 145.00 123.00 L 149.00 123.00 L 149.00 124.00 L 147.00 124.00 L 144.00 125.00 z M 225.00 121.00 L 222.00 121.00 L 223.00 122.00 L 223.00 123.00 L 224.00 125.00 L 221.00 124.00 L 223.00 123.00 L 222.00 121.00 L 221.00 120.00 L 218.00 115.00 L 218.00 114.00 z M 237.00 114.00 L 236.00 115.00 L 235.00 118.00 L 241.00 121.00 L 239.00 123.00 L 234.00 119.00 L 235.00 118.00 L 236.00 115.00 L 234.00 114.00 L 238.00 111.00 z M 201.00 121.00 L 198.00 123.00 L 199.00 118.00 z M 224.00 123.00 L 223.00 122.00 L 225.00 121.00 z M 87.00 122.00 L 81.00 118.00 L 88.00 116.00 z M 136.00 108.00 L 142.00 121.00 L 142.00 122.00 L 128.00 119.00 L 129.00 114.00 L 131.00 105.00 z M 152.00 101.00 L 154.00 119.00 L 155.00 120.00 L 154.00 121.00 L 154.00 119.00 L 148.00 115.00 L 147.00 110.00 L 152.00 101.00 L 151.00 96.00 L 155.00 95.00 z M 167.00 120.00 L 164.00 120.00 L 165.00 119.00 L 168.00 117.00 L 169.00 117.00 z M 215.00 117.00 L 214.00 119.00 L 214.00 120.00 L 213.00 119.00 L 214.00 119.00 L 212.00 116.00 L 214.00 115.00 z M 222.00 115.00 L 226.00 117.00 L 225.00 120.00 L 222.00 115.00 L 219.00 114.00 L 221.00 113.00 z M 243.00 119.00 L 242.00 120.00 L 242.00 118.00 z M 170.00 96.00 L 168.00 105.00 L 172.00 109.00 L 169.00 117.00 L 168.00 117.00 L 165.00 118.00 L 168.00 105.00 L 156.00 95.00 L 164.00 93.00 z M 307.00 91.00 L 307.00 108.00 L 303.00 112.00 L 305.00 93.00 z M 211.00 118.00 L 209.00 117.00 L 212.00 116.00 z M 215.00 114.00 L 217.00 115.00 L 217.00 116.00 L 216.00 117.00 L 214.00 114.00 L 215.00 114.00 L 215.00 113.00 L 217.00 113.00 z M 310.00 114.00 L 307.00 117.00 L 307.00 116.00 L 309.00 114.00 z M 182.00 116.00 L 179.00 114.00 L 181.00 114.00 z M 202.00 113.00 L 199.00 115.00 L 199.00 113.00 L 200.00 112.00 z M 194.00 114.00 L 189.00 115.00 L 189.00 112.00 L 192.00 111.00 z M 199.00 112.00 L 199.00 113.00 L 195.00 114.00 L 193.00 111.00 L 196.00 110.00 z M 227.00 113.00 L 223.00 111.00 L 223.00 110.00 z M 171.00 94.00 L 176.00 96.00 L 177.00 99.00 L 177.00 100.00 L 180.00 110.00 L 177.00 112.00 L 172.00 109.00 L 177.00 100.00 L 170.00 96.00 L 171.00 94.00 L 166.00 92.00 L 172.00 90.00 z M 90.00 110.00 L 90.00 111.00 L 88.00 110.00 z M 211.00 109.00 L 211.00 110.00 L 209.00 107.00 z M 36.00 105.00 L 32.00 94.00 L 33.00 86.00 L 38.00 90.00 L 38.00 105.00 L 36.00 105.00 L 37.00 109.00 L 33.00 105.00 z M 211.00 106.00 L 213.00 108.00 L 211.00 109.00 L 210.00 107.00 z M 220.00 109.00 L 219.00 110.00 L 218.00 108.00 z M 205.00 108.00 L 200.00 109.00 L 199.00 107.00 L 199.00 106.00 z M 216.00 107.00 L 215.00 108.00 L 216.00 109.00 L 214.00 109.00 L 213.00 108.00 L 215.00 108.00 L 214.00 106.00 L 213.00 106.00 z M 364.00 106.00 L 357.00 109.00 L 356.00 103.00 z M 245.00 98.00 L 234.00 101.00 L 229.00 105.00 L 230.00 106.00 L 229.00 107.00 L 229.00 106.00 L 228.00 106.00 L 225.00 108.00 L 224.00 109.00 L 222.00 108.00 L 228.00 106.00 L 229.00 105.00 L 225.00 103.00 L 234.00 101.00 L 237.00 98.00 L 275.00 82.00 z M 321.00 102.00 L 316.00 108.00 L 315.00 107.00 L 321.00 101.00 z M 349.00 72.00 L 330.00 93.00 L 348.00 100.00 L 338.00 108.00 L 324.00 99.00 L 330.00 93.00 L 329.00 93.00 L 349.00 71.00 z M 227.00 103.00 L 221.00 108.00 L 219.00 106.00 z M 180.00 94.00 L 178.00 97.00 L 183.00 99.00 L 189.00 106.00 L 177.00 100.00 L 177.00 99.00 L 178.00 97.00 L 176.00 96.00 L 174.00 89.00 L 175.00 89.00 z M 178.00 78.00 L 182.00 87.00 L 181.00 87.00 L 182.00 88.00 L 183.00 88.00 L 182.00 89.00 L 183.00 89.00 L 188.00 101.00 L 189.00 102.00 L 190.00 105.00 L 188.00 106.00 L 189.00 106.00 L 189.00 102.00 L 188.00 101.00 L 183.00 99.00 L 180.00 94.00 L 182.00 89.00 L 180.00 87.00 L 181.00 87.00 L 168.00 80.00 L 176.00 75.00 z M 211.00 100.00 L 208.00 95.00 L 210.00 94.00 L 214.00 102.00 L 216.00 104.00 L 216.00 105.00 L 214.00 102.00 z M 51.00 98.00 L 52.00 100.00 L 49.00 104.00 L 41.00 104.00 L 40.00 91.00 z M 131.00 104.00 L 130.00 104.00 L 129.00 103.00 L 131.00 103.00 z M 186.00 89.00 L 187.00 91.00 L 190.00 93.00 L 190.00 94.00 L 195.00 102.00 L 193.00 103.00 L 189.00 102.00 L 190.00 94.00 L 187.00 91.00 L 183.00 89.00 L 183.00 88.00 z M 211.00 100.00 L 212.00 103.00 L 206.00 100.00 L 205.00 97.00 L 206.00 96.00 z M 144.00 95.00 L 134.00 102.00 L 133.00 102.00 L 132.00 100.00 L 133.00 97.00 L 132.00 97.00 L 134.00 87.00 L 142.00 84.00 z M 308.00 85.00 L 307.00 84.00 L 307.00 83.00 L 314.00 71.00 L 308.00 85.00 L 314.00 87.00 L 310.00 90.00 L 319.00 96.00 L 313.00 102.00 L 309.00 90.00 L 310.00 90.00 L 307.00 87.00 z M 203.00 100.00 L 205.00 101.00 L 205.00 102.00 L 203.00 100.00 L 201.00 99.00 L 202.00 99.00 z M 131.00 97.00 L 120.00 98.00 L 114.00 94.00 L 127.00 90.00 z M 348.00 67.00 L 324.00 91.00 L 329.00 93.00 L 324.00 98.00 L 324.00 91.00 L 322.00 98.00 L 319.00 96.00 L 324.00 91.00 L 314.00 87.00 L 348.00 63.00 z M 200.00 96.00 L 200.00 98.00 L 190.00 93.00 L 190.00 91.00 z M 203.00 97.00 L 200.00 94.00 L 200.00 92.00 z M 265.00 93.00 L 259.00 95.00 L 274.00 83.00 z M 204.00 84.00 L 209.00 92.00 L 206.00 90.00 L 203.00 85.00 L 204.00 84.00 L 202.00 81.00 L 215.00 76.00 z M 151.00 91.00 L 142.00 84.00 L 150.00 81.00 z M 289.00 90.00 L 291.00 87.00 L 294.00 86.00 z M 203.00 85.00 L 201.00 87.00 L 198.00 85.00 L 197.00 82.00 L 201.00 81.00 z M 177.00 74.00 L 178.00 74.00 L 180.00 75.00 L 186.00 81.00 L 184.00 86.00 L 178.00 78.00 z M 160.00 85.00 L 163.00 78.00 L 167.00 80.00 z M 183.00 75.00 L 187.00 80.00 L 186.00 80.00 L 189.00 82.00 L 190.00 83.00 L 190.00 84.00 L 189.00 85.00 L 186.00 81.00 L 186.00 80.00 L 180.00 75.00 L 179.00 73.00 z M 303.00 83.00 L 302.00 84.00 L 294.00 79.00 z M 187.00 78.00 L 191.00 80.00 L 190.00 83.00 L 187.00 80.00 z M 306.00 84.00 L 306.00 83.00 L 307.00 71.00 L 307.00 84.00 z M 38.00 82.00 L 35.00 78.00 L 38.00 78.00 z M 290.00 76.00 L 289.00 77.00 L 284.00 75.00 L 286.00 74.00 z M 167.00 64.00 L 169.00 66.00 L 164.00 76.00 L 156.00 65.00 z M 169.00 65.00 L 171.00 68.00 L 175.00 71.00 L 176.00 72.00 L 174.00 73.00 L 171.00 68.00 L 169.00 66.00 L 169.00 65.00 L 168.00 64.00 L 170.00 64.00 z M 173.00 65.00 L 175.00 69.00 L 177.00 72.00 L 176.00 72.00 L 175.00 71.00 L 175.00 69.00 L 170.00 64.00 L 172.00 64.00 z M 139.00 65.00 L 138.00 67.00 L 124.00 69.00 L 114.00 61.00 L 118.00 69.00 L 100.00 71.00 L 107.00 48.00 z M 186.00 62.00 L 189.00 67.00 L 179.00 71.00 L 172.00 64.00 z M 151.00 71.00 L 142.00 67.00 L 143.00 67.00 z M 142.00 67.00 L 139.00 67.00 L 139.00 65.00 z M 233.00 64.00 L 239.00 57.00 L 243.00 56.00 z M 239.00 57.00 L 225.00 58.00 L 241.00 53.00 z M 338.00 28.00 L 332.00 38.00 L 327.00 43.00 L 324.00 44.00 L 323.00 45.00 L 309.00 57.00 L 309.00 49.00 L 324.00 44.00 L 329.00 30.00 L 310.00 40.00 L 309.00 49.00 L 307.00 50.00 L 307.00 45.00 L 309.00 41.00 L 307.00 44.00 L 307.00 45.00 L 305.00 50.00 L 303.00 51.00 L 307.00 44.00 L 307.00 42.00 L 310.00 40.00 L 311.00 33.00 L 312.00 32.00 L 330.00 27.00 z M 307.00 34.00 L 258.00 49.00 L 255.00 48.00 L 267.00 39.00 L 307.00 24.00 z M 344.00 29.00 L 341.00 32.00 L 342.00 37.00 L 331.00 41.00 L 332.00 38.00 L 341.00 32.00 L 341.00 29.00 z M 311.00 33.00 L 307.00 36.00 L 307.00 34.00 L 311.00 32.00 z M 292.00 21.00 L 300.00 22.00 L 291.00 22.00 z M 134.00 22.00 L 131.00 22.00 L 131.00 19.00 z"
 style="fill:#80ff9c; fill-opacity:0.67; fill-rule:evenodd; stroke:#003300; stroke-opacity:1.00; stroke-width:0.80;"/>

</svg>
